<?xml version="1.0" encoding="utf-8"?>
<!-- Generator: Adobe Illustrator 25.2.0, SVG Export Plug-In . SVG Version: 6.00 Build 0)  -->
<svg version="1.1" id="Layer_1" xmlns="http://www.w3.org/2000/svg" xmlns:xlink="http://www.w3.org/1999/xlink" x="0px" y="0px"
	 viewBox="0 0 541.764 128.231" enable-background="new 0 0 541.764 128.231" xml:space="preserve">
<g>
	<g>
		<path fill="#FFFFFF" d="M64.791,35.55c-2.728-0.785-5.371-1.123-7.681-1.071c2.251-0.477,4.719-1.397,7.174-2.765
			c6.743-3.735,10.784-9.341,9.023-12.514c-1.753-3.175-8.646-2.709-15.39,1.029c-1.979,1.092-3.874,2.941-5.308,4.246
			c0.916-1.663,1.899-4.189,2.501-6.308c2.125-7.41,1.021-14.231-2.472-15.231c-3.485-0.998-8.036,4.204-10.148,11.613
			c-0.695,2.401-1.046,4.737-1.083,6.833c-0.498-2.091-1.376-4.355-2.619-6.603C35.048,8.039,29.439,4,26.272,5.763
			c-3.175,1.759-2.715,8.647,1.021,15.388c1.301,2.345,2.823,4.346,4.392,5.909c-1.865-1.163-4.154-2.188-6.71-2.916
			c-7.408-2.125-14.227-1.021-15.227,2.468c-1,3.489,4.2,8.038,11.612,10.157c2.221,0.644,4.392,0.985,6.363,1.067
			c-1.92,0.517-3.982,1.343-6.024,2.481c-6.743,3.742-10.78,9.343-9.023,12.514c1.761,3.175,8.651,2.717,15.39-1.027
			c2.644-1.46,4.857-3.211,6.484-4.978c-1.401,1.995-2.627,4.591-3.476,7.542c-2.125,7.411-1.017,14.227,2.468,15.227
			c3.489,1.002,8.044-4.196,10.165-11.604c0.46-1.633,0.757-3.215,0.92-4.725l0.017,0.019v0.086
			c0.807,7.124,1.853,23.612-13.327,35.854c7.174-11.468-2.326-15.348-2.326-15.348c-8.429-4.792-14.905-9.95-14.905-9.95
			c1.347,3.323,1.096,17.44,1.096,17.44c1.426,12.69,12.391,10.464,14.612,9.603c-5.677,4.38-13.286,7.931-23.488,9.822l4.121,1.441
			c9.207-1.935,16.151-5.478,21.38-9.837c-0.205,1.786-0.636,13.227,12.595,10.774c0,0,13.654-5.112,17.222-4.794
			c0,0-4.434-4.29-13.085-11.119c0,0-5.3-5.288-13.947,2.564c-0.464,0.466-0.937,0.931-1.431,1.387
			c0.485-0.508,0.962-0.956,1.431-1.387c11.985-12.138,12.102-28.276,11.541-34.927l-0.042-0.109l0.033,0.008
			c0.373,0.858,0.782,1.723,1.259,2.585c3.736,6.739,9.337,10.778,12.516,9.019c3.171-1.757,2.706-8.647-1.029-15.39
			c-1.18-2.121-2.531-3.97-3.945-5.455c1.782,1.044,3.903,1.958,6.245,2.625c7.413,2.131,14.231,1.023,15.227-2.462
			C77.394,42.226,72.203,37.674,64.791,35.55 M52.547,39.406c-1.523,5.298-7.032,8.362-12.332,6.844
			c-5.3-1.512-8.358-7.041-6.839-12.334c1.514-5.302,7.032-8.364,12.332-6.842C51.003,28.589,54.065,34.111,52.547,39.406"/>
		<path fill="#FFFFFF" d="M198.184,38.005l-5.576-8.281c17.233-3.491,13.622-23.957-3.74-22.48
			c-3.967,0.194-13.442,0.428-17.309-0.001c0.159,12.662,1.049,31.483-0.423,44.057c3.618,0.015,7.673-0.078,11.228,0.194
			c-0.242-3.383-0.433-10.176-0.351-13.558c0.213-0.573-0.823-6.887,0.28-6.84c0.21,0.288,0.497,0.414,0.778,0.966
			c0,0,11.868,19.236,11.868,19.236c3.069-0.049,9.479,0.079,12.575,0.194C205.565,48.595,200.249,40.965,198.184,38.005z
			 M182.011,28.428V10.959C197.095,8.662,196.477,29.85,182.011,28.428z"/>
		<path fill="#FFFFFF" d="M427.867,51.301c3.614,0.015,7.685-0.078,11.232,0.194c-0.245-3.383-0.438-10.176-0.355-13.558
			c0.21-0.571-0.809-6.879,0.276-6.84c0.218,0.289,0.495,0.415,0.782,0.966c0,0,11.868,19.236,11.868,19.236
			c3.068-0.049,9.475,0.079,12.57,0.194c-4.268-6.286-10.711-15.41-14.905-21.772c17.236-3.478,13.622-23.958-3.74-22.48
			c-3.965,0.194-13.44,0.428-17.305-0.001C428.449,19.906,429.338,38.727,427.867,51.301z M438.743,10.959
			c15.081-2.297,14.458,18.892,0,17.469V10.959z"/>
		<path fill="#FFFFFF" d="M477.521,47.294l5.237-7.08c-7.545-17.312,6.803-41.24,24.636-25.013
			c9.756,12.789,0.541,41.279-18.917,31.688l-2.937,3.986c26.007,8.569,50.242-16.947,30.219-38.478
			c-8.749-8.017-30.727-8.02-39.2,0.681C466.875,20.92,466.818,41.361,477.521,47.294z"/>
		<path fill="#FFFFFF" d="M245.504,7.244c-8.984,0.486-27.158,0.64-36.084,0.067c0.62,2.061,0.378,3.472,0,5.674
			c4.258-0.567,8.542-0.853,12.847-0.853c0.172,10.676-0.235,28.36-0.77,39.169c3.592,0,7.661-0.013,11.366,0.058
			c-0.301-10.532-0.18-28.804,0-39.228c3.941-0.042,6.897,0.168,12.642,0.853C245.068,11.262,245.446,8.931,245.504,7.244z"/>
		<path fill="#FFFFFF" d="M127.986,7.508c-6.667,0.412-20.475,0.186-27.195-0.197c0.552,10.25-0.001,33.603-0.423,44.049
			c4.432-0.076,7.278-0.085,11.583,0c-0.189-5.407-0.728-15.879-0.489-21.173l15.67,0.652c-0.468-2.427-0.339-2.947,0-5.348
			c-3.3,0.155-12.505,0.608-15.67,0.328l0.489-13.744c5.897-0.035,10.72,0.365,16.034,0.776
			C127.553,10.859,127.661,9.47,127.986,7.508z"/>
		<path fill="#FFFFFF" d="M144.652,7.838c-3.063-0.003-6.345-0.154-9.257-0.527c0.427,10.994,0.379,33.096-0.209,44.049
			c6.738-0.271,20.354-0.333,27.052,0c-0.43-1.941-0.155-3.499,0-5.405c-7.501,0.823-7.714,0.747-16.181,0.786
			c0-4.383,0-11.994,0-16.362l16.181,0.594c-0.561-1.927-0.59-3.38,0-5.348l-16.181,0.519l0.351-14.012l16.252,0.784
			c-0.553-1.944-0.572-3.582,0-5.606L144.652,7.838z"/>
		<path fill="#FFFFFF" d="M257.652,7.244c-2.816-0.003-3.365,0.021-6.208,0.067c0.725,7.673-0.507,35.889-0.786,44.049
			c3.926-0.082,7.906-0.053,11.725,0c-0.791-9.696,0.294-34.09,0.849-44.049C261.157,7.265,259.3,7.244,257.652,7.244z"/>
		<path fill="#FFFFFF" d="M405.512,51.659c2.238-0.332,6.463-1.121,12.675-2.384c-0.186-5.304-0.567-12.952,0.284-17.983
			c-3.085,0-7.827,0-10.876,0c0.484,4.94,0.439,10.862,0.427,15.879c-20.84,7.923-32.477-16.546-19.991-31.454
			c6.221-7.104,20.476-7.408,26.416,0.915h0.916c0.418-2.261,1.033-4.367,1.836-6.315C368.845-10.681,349.674,57.056,405.512,51.659
			z"/>
		<path fill="#FFFFFF" d="M312.388,7.261c-0.427,0.004-0.962,0.029-1.619,0.05c0.327,8.232,0.596,22.3,0.485,30.433
			c-6.295-6.369-23.976-24.247-29.914-30.433c-2.387-0.106-4.173-0.074-6.664,0c0.332,13.753,0.313,30.655-1.062,44.049
			c2.463-0.074,3.95-0.08,6.425,0c-0.355-7.809-0.582-23.568-0.347-31.342c5.809,5.294,24.739,25.394,30.512,31.342
			c2.219-0.087,3.256-0.068,5.714,0c-0.312-11.255,0.522-32.703,1.059-44.049C315.963,7.291,313.312,7.21,312.388,7.261z"/>
		<path fill="#FFFFFF" d="M484.796,43.705c-0.239-0.301-0.452-0.625-0.669-0.95l-4.426,5.771c1.163,0.598,2.347,1.108,3.547,1.567
			l3.422-4.464C486.001,45.064,485.369,44.43,484.796,43.705z"/>
		<g>
			<g>
				<path fill="#FFFFFF" d="M482.976,71.104c0-3.315-0.908-6.417-2.464-9.09l-1.146,1.552c-1.196,1.619-3.116,2.581-5.15,2.581
					c-1.385,0-2.694-0.429-3.807-1.249l-0.724-0.542c-1.381-1.015-2.272-2.508-2.523-4.204c-0.251-1.696,0.163-3.376,1.176-4.758
					l1.288-1.728c-1.518-0.414-3.104-0.652-4.748-0.652c-8.981,0-16.415,6.565-17.82,15.151l1.64-0.239
					c0.147-0.017,0.297-0.033,0.439-0.044c3.338-0.253,6.333,2.15,6.81,5.465l0.134,0.904c0.243,1.692-0.184,3.38-1.213,4.752
					c-1.029,1.376-2.522,2.261-4.204,2.506l-0.498,0.073c3.275,4.597,8.634,7.607,14.712,7.607
					C474.877,89.19,482.976,81.092,482.976,71.104z"/>
				<path fill="#FFFFFF" d="M484.775,100.263l0.74-0.548c1.707-1.244,2.079-3.656,0.828-5.363l-6.576-8.981
					c-1.991,2.079-4.405,3.742-7.111,4.846l6.752,9.213C480.654,101.137,483.068,101.506,484.775,100.263z"/>
				<path fill="#FFFFFF" d="M473.053,63.393c1.519,0.489,3.255,0.004,4.25-1.347l8.237-11.171c-0.77-0.232-1.535-0.493-2.292-0.782
					L473.053,63.393z"/>
				<path fill="#FFFFFF" d="M488.477,46.888l2.347-3.144c-0.686-0.293-1.351-0.623-1.995-0.989l-2.159,2.874
					C487.239,46.108,487.841,46.526,488.477,46.888z"/>
				<path fill="#FFFFFF" d="M453.547,74.624l-0.134-0.91c-0.301-2.092-2.255-3.549-4.346-3.25l-18.803,2.721
					c1,2.272,1.661,4.729,1.853,7.34c0.029,0.362,0.017,0.717,0.029,1.077l18.151-2.629
					C452.385,78.67,453.849,76.718,453.547,74.624z"/>
				<path fill="#FFFFFF" d="M485.54,40.847c-0.669-0.582-1.313-1.192-1.899-1.857l-0.883,1.224c0.393,0.914,0.849,1.761,1.368,2.541
					L485.54,40.847z"/>
				<path fill="#FFFFFF" d="M479.701,48.526c-0.686-0.356-1.368-0.734-2.046-1.138c-0.046-0.029-0.084-0.065-0.134-0.094
					l-7.12,9.632c-0.912,1.228-0.962,2.828-0.28,4.1L479.701,48.526z"/>
				<path fill="#FFFFFF" d="M535.784,110.61c-0.205-0.747-0.661-2.253-1.008-2.945c-0.297-0.588-1.067-1.676-1.502-2.175
					c-0.611-0.701-2.012-1.924-2.748-2.495c-0.841-0.65-1.857-1.063-2.911-1.406c-5.773-1.861-11.905,0.808-14.587,6.039
					l1.092,0.186c0.105,0.019,0.205,0.038,0.297,0.063c2.196,0.529,3.623,2.694,3.242,4.921l-0.101,0.609
					c-0.188,1.136-0.82,2.133-1.765,2.803c-0.945,0.665-2.091,0.925-3.225,0.736l-0.335-0.059c1.155,3.629,3.978,6.676,7.881,7.936
					c6.417,2.075,13.298-1.445,15.369-7.862C536.169,114.833,536.345,112.622,535.784,110.61z"/>
				<path fill="#FFFFFF" d="M515.852,113.118l0.105-0.613c0.243-1.403-0.715-2.746-2.121-2.984l-8.864-1.516
					c0.029,0.525-0.092,1.132-0.18,1.661c-0.335,1.974-0.757,2.711-1.351,3.972l9.421,1.602
					C514.266,115.477,515.609,114.528,515.852,113.118z"/>
				<path fill="#FFFFFF" d="M503.44,104.645c-0.97-7.245-7.161-12.84-14.683-12.84c-0.355,0-0.707,0.031-1.058,0.054l0.715,0.979
					c2.083,2.849,1.46,6.852-1.389,8.954l-0.741,0.533c-1.104,0.805-2.405,1.23-3.769,1.23c-2.041,0-3.974-0.973-5.179-2.617
					l-1.339-1.828c-1.305,2.211-2.066,4.773-2.066,7.528c0,8.191,6.639,14.825,14.825,14.825c6.346,0,11.738-3.982,13.859-9.575
					c0.619-1.635,0.975-3.401,0.975-5.25C503.591,105.961,503.528,105.298,503.44,104.645z"/>
				<path fill="#FFFFFF" d="M404.562,60.54c-12.834,0.958-22.472,12.152-21.514,24.992c0.962,12.84,12.156,22.466,24.994,21.508
					c12.847-0.958,22.472-12.144,21.514-24.99C428.595,69.209,417.409,59.58,404.562,60.54z"/>
			</g>
			<g>
				<path fill="#FFFFFF" d="M108.968,105.816c-4.844,0-8.6-3.973-8.6-9.035V63.907c0-0.436,0.163-0.871,0.49-1.144
					c0.271-0.326,0.707-0.489,1.143-0.489h28.14c4.735,0,8.6,3.864,8.6,8.6v5.77c0,2.83-1.415,5.388-3.538,6.912
					c2.177,1.578,3.592,4.137,3.592,7.021v6.64c0,6.804-6.041,8.6-10.776,8.6H108.968z M103.634,65.54c0,1.578,0,8.109,0,16.438
					h26.507c2.938,0,5.334-2.396,5.334-5.334v-5.77c0-2.939-2.396-5.334-5.334-5.334H103.634z M103.634,85.243c0,0,0,5.442,0,11.538
					c0,3.32,2.286,5.77,5.334,5.77h21.227c2.939,0,5.389-2.395,5.389-5.334v-6.64c0-2.939-2.449-5.334-5.389-5.334H103.634z"/>
				<path fill="#FFFFFF" d="M145.546,63.907c0-0.926,0.708-1.633,1.633-1.633c0.871,0,1.633,0.707,1.633,1.633v40.276
					c0,0.926-0.762,1.633-1.633,1.633c-0.925,0-1.633-0.707-1.633-1.633V63.907z"/>
				<path fill="#FFFFFF" d="M189.904,62.274c4.735,0,8.545,3.864,8.545,8.6v26.343c0,4.735-3.81,8.6-8.545,8.6h-26.017
					c-4.735,0-8.6-3.864-8.6-8.6V70.874c0-4.735,3.864-8.6,8.6-8.6H189.904z M158.554,97.216c0,2.939,2.395,5.334,5.334,5.334
					h26.017c2.939,0,5.334-2.395,5.334-5.334V70.874c0-2.939-2.395-5.334-5.334-5.334h-26.017c-2.939,0-5.334,2.395-5.334,5.334
					V97.216z"/>
				<path fill="#FFFFFF" d="M241.886,62.274c0.926,0,1.633,0.707,1.633,1.633c0,0.871-0.707,1.633-1.633,1.633h-17.308v38.644
					c0,0.926-0.708,1.633-1.578,1.633c-0.926,0-1.633-0.707-1.633-1.633V65.54h-17.309c-0.925,0-1.633-0.762-1.633-1.633
					c0-0.926,0.708-1.633,1.633-1.633H241.886z"/>
				<path fill="#FFFFFF" d="M282.384,102.55c0.87,0,1.633,0.762,1.633,1.633c0,0.926-0.763,1.633-1.633,1.633h-26.289
					c-4.735,0-8.6-3.864-8.6-8.6V70.874c0-4.735,3.864-8.6,8.6-8.6h26.289c0.87,0,1.578,0.707,1.578,1.633
					c0,0.871-0.708,1.633-1.578,1.633h-26.289c-2.939,0-5.334,2.395-5.334,5.334v11.104h30.915c0.926,0,1.633,0.762,1.633,1.633
					c0,0.87-0.707,1.633-1.633,1.633h-30.915v11.974c0,2.939,2.395,5.334,5.334,5.334H282.384z"/>
				<path fill="#FFFFFF" d="M325.764,62.274c0.926,0,1.633,0.707,1.633,1.633c0,0.871-0.707,1.633-1.633,1.633h-26.343
					c-2.939,0-5.334,2.395-5.334,5.334v26.343c0,2.939,2.395,5.334,5.334,5.334h26.343c0.926,0,1.633,0.762,1.633,1.633
					c0,0.926-0.707,1.633-1.633,1.633h-26.343c-4.735,0-8.6-3.864-8.6-8.6V70.874c0-4.735,3.864-8.6,8.6-8.6H325.764z"/>
				<path fill="#FFFFFF" d="M371.16,63.907v40.276c0,0.926-0.708,1.633-1.579,1.633c-0.925,0-1.633-0.707-1.633-1.633v-18.94h-30.86
					v18.94c0,0.926-0.762,1.633-1.633,1.633c-0.925,0-1.633-0.707-1.633-1.633V63.907c0-0.926,0.708-1.633,1.633-1.633
					c0.871,0,1.633,0.707,1.633,1.633v18.07h30.86v-18.07c0-0.926,0.708-1.633,1.633-1.633
					C370.452,62.274,371.16,62.981,371.16,63.907z"/>
			</g>
		</g>
		<g>
			<path fill="#FFFFFF" d="M361.543,37.744c-2.897-6.683-10.437-24.105-13.053-30.625c-1.462,0.208-3.727,0.097-5.309,0
				c-5.284,13.897-13.62,31.056-19.845,44.241c2.405-0.068,4.312-0.098,6.568,0c1.464-4.683,3.083-9.009,4.865-12.964
				c3.966-0.18,11.935-0.193,15.892,0c2.314,4.767,3.465,7.747,5.102,12.964c4.205-0.083,7.962-0.092,11.859,0v-0.51
				C364.927,46.129,364.215,43.918,361.543,37.744z M343.478,34.422c-1.126-0.004-5.93,0.029-6.952-0.067l6.655-14.928l5.878,14.928
				L343.478,34.422z"/>
		</g>
	</g>
	<path fill="#FFFFFF" d="M495.898,41.434c7.182,0,13.001-5.817,13.001-12.999c0-7.18-5.819-12.999-13.001-12.999
		c-7.178,0-12.997,5.819-12.997,12.999C482.901,35.617,488.72,41.434,495.898,41.434z"/>
</g>
</svg>
